<svg xmlns="http://www.w3.org/2000/svg" width="249.4" height="46.309" viewBox="0 0 249.4 46.309"><g id="Grupo_147" data-name="Grupo 147" transform="translate(0 0)"><g id="Grupo_143" data-name="Grupo 143" transform="translate(33.282 14.447)"><g id="Grupo_142" data-name="Grupo 142" transform="translate(0 0)"><path id="Caminho_94" data-name="Caminho 94" d="M143.026,95.257l-6.278,22.306h-7.583l-6.278-22.306h6.947l3.118,15.154,3.1-15.154Z" transform="translate(-122.887 -92.072)" fill="#005cb9"/><path id="Caminho_95" data-name="Caminho 95" d="M200.784,113.771a18.041,18.041,0,0,1-.1,1.848h-10.74c.418,2.481,1.883,3.728,4.558,3.728a15.825,15.825,0,0,0,5.767-1.212v4.812a24.947,24.947,0,0,1-7.425,1.212c-6.251,0-9.847-3.713-9.847-9.91s3.63-9.91,9.432-9.91c5.472,0,8.349,3.356,8.349,9.433Zm-6.565-2.613c0-1.32-.776-2.326-1.818-2.326-1.22,0-2.182,1.39-2.482,3.6h4.107a4.978,4.978,0,0,0,.193-1.275Z" transform="translate(-163.171 -98.157)" fill="#005cb9"/><path id="Caminho_96" data-name="Caminho 96" d="M261.558,111.38v12.268h-6.692V111.38c0-1.7-.424-2.549-1.386-2.549-1.582,0-2.948,2.284-2.948,5.05v9.767h-6.692v-9.767a84.435,84.435,0,0,0-.507-9.032h6.249a12.424,12.424,0,0,1,.5,2.179,6.7,6.7,0,0,1,5.48-2.689C259.215,104.337,261.558,106.849,261.558,111.38Z" transform="translate(-203.599 -98.157)" fill="#005cb9"/><path id="Caminho_97" data-name="Caminho 97" d="M317.077,111.091a13.29,13.29,0,0,1-.5-2.4,5.307,5.307,0,0,1-4.869,2.916c-4.375,0-6.451-4.2-6.451-10.145,0-6.617,2.8-9.675,7.334-9.675a6.326,6.326,0,0,1,3.534,1.06V85.6h6.692v16.474c0,2.359.277,7.054.506,9.018Zm-.949-9.05v-5.3a3.777,3.777,0,0,0-1.629-.467c-1.609,0-2.418,1.918-2.418,5.736,0,3.434.654,5.1,2.006,5.1s2.041-1.681,2.041-5.035Z" transform="translate(-245.097 -85.6)" fill="#005cb9"/><path id="Caminho_98" data-name="Caminho 98" d="M364.519,119.031c0-4.182,4.374-7.238,10.388-7.238V111.6c0-1.289-.456-1.976-1.944-1.976a14.69,14.69,0,0,0-6.819,2.358V106.5a17.69,17.69,0,0,1,8.237-2.167c4.833,0,7.217,2.4,7.217,7.266v3.027c0,2.359.249,7.054.478,9.018h-6.151a8.668,8.668,0,0,1-.382-2.549h-.057a6.9,6.9,0,0,1-5.648,3.059A5.054,5.054,0,0,1,364.519,119.031Zm10.388-4.4a3.509,3.509,0,0,0-3.569,3.25c0,1.038.6,1.785,1.434,1.785C374.1,119.664,374.907,117.752,374.907,114.629Z" transform="translate(-284.807 -98.156)" fill="#005cb9"/><path id="Caminho_99" data-name="Caminho 99" d="M431.75,117.1a13.861,13.861,0,0,1-6.915-1.818v-1.529a14.441,14.441,0,0,0,7.231,2.071c3.432,0,5.516-1.526,5.516-4.192,0-2.472-1.752-4.132-6.463-6.311-4.91-2.271-6.346-3.832-6.346-6.131,0-3.159,2.991-5.386,6.882-5.386a13.83,13.83,0,0,1,6.694,1.848v1.466a14.746,14.746,0,0,0-6.945-2.039c-2.862,0-4.782,1.429-4.782,3.583,0,1.967,1.594,3.342,5.753,5.292,5.449,2.554,7.057,4.377,7.057,7.152,0,3.632-3.164,5.991-7.68,5.991Z" transform="translate(-325.183 -91.098)" fill="#005cb9"/><path id="Caminho_100" data-name="Caminho 100" d="M483.447,88.42a.889.889,0,0,1,.924-.892.873.873,0,0,1,.892.892.889.889,0,0,1-.892.924.9.9,0,0,1-.924-.924Zm.128,5.417h1.561v18.548h-1.561Z" transform="translate(-364.501 -86.893)" fill="#005cb9"/><path id="Caminho_101" data-name="Caminho 101" d="M530.868,111.164v13h-1.561v-13c0-3.282-1.237-4.97-3.637-4.97-3.726,0-6.144,4.061-6.144,10.324v7.648h-1.563v-13c0-3.282-1.237-4.97-3.637-4.97-3.726,0-6.144,4.061-6.144,10.324v7.648h-1.561v-7.971c0-4.616-.121-8.679-.319-10.579h1.433c.147,1.277.264,3.031.341,5.019,1.126-3.56,3.42-5.529,6.638-5.529,3.018,0,4.595,1.732,4.789,5.273,1.152-3.4,3.414-5.273,6.554-5.273C529.29,105.108,530.868,107.094,530.868,111.164Z" transform="translate(-379.816 -98.673)" fill="#005cb9"/><path id="Caminho_102" data-name="Caminho 102" d="M613.175,115.112c0,6.145-2.312,9.561-6.471,9.561a13.5,13.5,0,0,1-6.371-2.018v7.88h-1.561V116.194c0-4.616-.121-8.679-.319-10.579h1.434c.148,1.29.266,3.066.344,5.076,1.117-3.547,3.366-5.587,6.412-5.587C610.751,105.107,613.175,108.821,613.175,115.112Zm-1.721-.032c0-5.627-1.751-8.889-4.778-8.889-3.565,0-6.343,4.521-6.343,10.324v5.108a13.97,13.97,0,0,0,6.214,1.966c3.2,0,4.906-2.956,4.906-8.509Z" transform="translate(-441.568 -98.673)" fill="#005cb9"/><path id="Caminho_103" data-name="Caminho 103" d="M660.159,100.193a99.253,99.253,0,0,0,.446,10.9h-1.561c-.274-2.391-.446-6.576-.446-10.9V85.6h1.561Z" transform="translate(-481.871 -85.6)" fill="#005cb9"/><path id="Caminho_104" data-name="Caminho 104" d="M694.149,114.892H681.083c0,5.589,2.088,8.7,5.927,8.7a15.565,15.565,0,0,0,6.789-1.848v1.37a17.186,17.186,0,0,1-6.819,1.561c-4.845,0-7.616-3.62-7.616-9.815,0-6.258,2.837-9.751,7.775-9.751,4.535,0,7.106,2.978,7.106,8.094a15.53,15.53,0,0,1-.1,1.689Zm-1.657-2.517c0-3.879-2.043-6.183-5.417-6.183-3.656,0-5.748,2.732-5.971,7.775H692.4a14.152,14.152,0,0,0,.1-1.59Z" transform="translate(-495.787 -98.674)" fill="#005cb9"/><path id="Caminho_105" data-name="Caminho 105" d="M736.561,123.147v-1.273a15.771,15.771,0,0,0,6.724,1.721c3.066,0,5.226-1.553,5.226-3.792,0-1.891-1.606-3.265-5.8-4.943-4.7-1.879-6.056-3.242-6.056-5.286,0-2.71,2.682-4.461,6.405-4.461a14.487,14.487,0,0,1,6.373,1.53v1.273a15.887,15.887,0,0,0-6.532-1.721c-2.664,0-4.526,1.362-4.526,3.219,0,1.637,1.508,2.772,5.249,4.243,5.132,2.021,6.607,3.588,6.607,6.048,0,3.121-2.825,4.97-7.074,4.97A14.439,14.439,0,0,1,736.561,123.147Z" transform="translate(-534.115 -98.675)" fill="#005cb9"/></g></g><g id="Grupo_146" data-name="Grupo 146"><g id="Grupo_144" data-name="Grupo 144" transform="translate(0 17.803)"><path id="Retângulo_58" data-name="Retângulo 58" d="M.853,0H4.371A.849.849,0,0,1,5.22.849V4.371a.849.849,0,0,1-.849.849H.853A.853.853,0,0,1,0,4.37V.854A.853.853,0,0,1,.853,0Z" transform="translate(23.54 5.871)" fill="#29a5de"/><path id="Retângulo_59" data-name="Retângulo 59" d="M.853,0H4.371A.849.849,0,0,1,5.22.849V4.371a.849.849,0,0,1-.849.849H.853A.853.853,0,0,1,0,4.37V.854A.853.853,0,0,1,.853,0Z" transform="translate(17.669 5.871)" fill="#29a5de"/><path id="Retângulo_61" data-name="Retângulo 61" d="M.853,0H4.371A.849.849,0,0,1,5.22.849V4.371a.849.849,0,0,1-.849.849H.853A.853.853,0,0,1,0,4.37V.854A.853.853,0,0,1,.853,0Z" transform="translate(17.669 11.742)" fill="#29a5de"/><path id="Retângulo_63" data-name="Retângulo 63" d="M.853,0H4.371A.849.849,0,0,1,5.22.849V4.371a.849.849,0,0,1-.849.849H.853A.853.853,0,0,1,0,4.37V.854A.853.853,0,0,1,.853,0Z" transform="translate(11.764 11.742)" fill="#29a5de"/><path id="Retângulo_64" data-name="Retângulo 64" d="M.853,0H4.371A.849.849,0,0,1,5.22.849V4.371a.849.849,0,0,1-.849.849H.853A.853.853,0,0,1,0,4.37V.854A.853.853,0,0,1,.853,0Z" transform="translate(11.764 17.613)" fill="#29a5de"/><path id="Caminho_106" data-name="Caminho 106" d="M40.26,100.421a.463.463,0,0,1-.463-.464v-4.3a.461.461,0,0,1,.463-.463h4.294a.464.464,0,0,1,.466.463v4.3a.466.466,0,0,1-.466.464Z" transform="translate(-33.926 -89.327)" fill="#29a5de"/><path id="Caminho_107" data-name="Caminho 107" d="M40.26,118.217a.463.463,0,0,1-.463-.464v-4.3a.461.461,0,0,1,.463-.463h4.294a.464.464,0,0,1,.466.463v4.3a.466.466,0,0,1-.466.464Z" transform="translate(-33.926 -101.252)" fill="#29a5de"/><path id="Retângulo_66" data-name="Retângulo 66" d="M.849,0H4.371A.849.849,0,0,1,5.22.849V4.371a.849.849,0,0,1-.849.849H.853A.853.853,0,0,1,0,4.37V.849A.849.849,0,0,1,.849,0Z" transform="translate(0 5.871)" fill="#29a5de"/><path id="Retângulo_69" data-name="Retângulo 69" d="M.853,0H4.371A.849.849,0,0,1,5.22.849V4.371a.849.849,0,0,1-.849.849H.853A.853.853,0,0,1,0,4.37V.854A.853.853,0,0,1,.853,0Z" transform="translate(23.54 0)" fill="#29a5de"/><path id="Caminho_108" data-name="Caminho 108" d="M22.463,82.624A.463.463,0,0,1,22,82.159v-4.3a.462.462,0,0,1,.463-.463h4.294a.464.464,0,0,1,.465.463v4.3a.465.465,0,0,1-.465.464Z" transform="translate(-22 -77.401)" fill="#29a5de"/></g><g id="Grupo_145" data-name="Grupo 145" transform="translate(0.056)"><path id="Retângulo_70" data-name="Retângulo 70" d="M.853,0H4.371A.849.849,0,0,1,5.22.849V4.371a.849.849,0,0,1-.849.849H.853A.853.853,0,0,1,0,4.37V.854A.853.853,0,0,1,.853,0Z" transform="translate(5.871 17.613)" fill="#005cb9"/><path id="Retângulo_71" data-name="Retângulo 71" d="M.853,0H4.371A.849.849,0,0,1,5.22.849V4.371a.849.849,0,0,1-.849.849H.853A.853.853,0,0,1,0,4.37V.854A.853.853,0,0,1,.853,0Z" transform="translate(11.742 23.484)" fill="#005cb9"/><path id="Retângulo_72" data-name="Retângulo 72" d="M.853,0H4.371A.849.849,0,0,1,5.22.849V4.371a.849.849,0,0,1-.849.849H.853A.853.853,0,0,1,0,4.37V.854A.853.853,0,0,1,.853,0Z" transform="translate(17.613 17.613)" fill="#005cb9"/><path id="Caminho_109" data-name="Caminho 109" d="M22.633,82.624a.462.462,0,0,1-.463-.464v-4.3a.462.462,0,0,1,.463-.463h4.294a.464.464,0,0,1,.466.463v4.3a.466.466,0,0,1-.466.464Z" transform="translate(-22.17 -65.659)" fill="#005cb9"/><path id="Retângulo_73" data-name="Retângulo 73" d="M.853,0H4.371A.849.849,0,0,1,5.22.849V4.371a.849.849,0,0,1-.849.849H.853A.853.853,0,0,1,0,4.37V.854A.853.853,0,0,1,.853,0Z" transform="translate(23.484 11.742)" fill="#005cb9"/><path id="Retângulo_74" data-name="Retângulo 74" d="M.853,0H4.371A.849.849,0,0,1,5.22.849V4.371a.849.849,0,0,1-.849.849H.853A.853.853,0,0,1,0,4.37V.854A.853.853,0,0,1,.853,0Z" transform="translate(29.355 5.871)" fill="#005cb9"/><path id="Caminho_110" data-name="Caminho 110" d="M129.412,47.031a.463.463,0,0,1-.463-.464v-4.3a.462.462,0,0,1,.463-.463h4.3a.464.464,0,0,1,.466.463v4.3a.466.466,0,0,1-.466.464Z" transform="translate(-93.724 -41.808)" fill="#005cb9"/></g></g></g></svg>